<?xml version="1.0" encoding="utf-8"?>
<!-- Generator: Adobe Illustrator 24.3.0, SVG Export Plug-In . SVG Version: 6.00 Build 0)  -->
<svg version="1.1" id="Layer_1" xmlns="http://www.w3.org/2000/svg" xmlns:xlink="http://www.w3.org/1999/xlink" x="0px" y="0px"
	 viewBox="0 0 460 134.2" style="enable-background:new 0 0 460 134.2;" xml:space="preserve">
<style type="text/css">
	.st0{fill:#1F074F;}
	.st1{fill:#04AB61;}
	.st2{fill-rule:evenodd;clip-rule:evenodd;fill:#FBB016;}
	.st3{fill:#FBB016;}
</style>
<path class="st0" d="M125.9,68.9c-3.3-2.9-8-4.3-14-4.3h-9.7h-4.7h-5.7v52.6h10.4V102h7.3c3.7,0,6.8-0.6,9.5-1.7
	c2.7-1.1,4.9-2.7,6.7-4.6c1.8-2,3.1-4.2,3.9-6.7c0.9-2.5,1.3-5.2,1.3-7.9C130.9,75.8,129.3,71.7,125.9,68.9z M119.3,87.4
	c-0.7,1.8-1.9,3.3-3.6,4.4c-1.7,1.1-3.8,1.6-6.4,1.6h-7.1v-20h9.7c2.6,0,4.7,0.6,6.2,1.8c1.6,1.2,2.4,3.3,2.4,6.1
	C120.5,83.6,120.1,85.6,119.3,87.4z"/>
<path class="st0" d="M172.2,106.5c0-1.6,0-2.9,0-3.9v-9.2c0-3.5-0.5-6.4-1.5-8.6c-0.9-2.2-2.2-4-3.9-5.2c-1.7-1.2-3.7-2.1-6.1-2.6
	c-2.3-0.5-4.8-0.7-7.5-0.7c-2.2,0-4.4,0.2-6.6,0.5c-2.2,0.3-4.2,0.8-5.9,1.4v8.1h0.7c1.2-0.5,2.7-1,4.6-1.4c1.9-0.4,3.9-0.7,5.9-0.7
	c2.2,0,4.1,0.2,5.6,0.7c1.5,0.4,2.7,1.2,3.4,2.5c0.8,1.3,1.2,3.1,1.2,5.6v0.7c-0.7-0.2-1.4-0.3-2.2-0.4c-1.6-0.3-3.4-0.5-5.5-0.5
	c-3.4,0-6.4,0.5-9.1,1.4c-2.6,0.9-4.6,2.2-6.1,4.1c-1.4,1.9-2.1,4.2-2.1,7.1c0,4.5,1.5,7.7,4.6,9.7c3.1,2,7.7,3,13.8,3
	c1.8,0,3.7-0.1,5.7-0.4c2-0.2,3.9-0.6,5.8-1c1.9-0.5,3.8-1,5.4-1.7l0.2-0.6c-0.2-0.9-0.3-2-0.4-3.5
	C172.3,109.5,172.2,108,172.2,106.5z M160.4,110.5c-1.6,0.3-3.2,0.4-4.9,0.4c-2.8,0-5-0.4-6.5-1.3c-1.5-0.9-2.3-2.3-2.3-4.3
	c0-2.1,0.8-3.6,2.3-4.5c1.6-0.9,3.9-1.3,7.1-1.3c1.4,0,2.9,0.1,4.4,0.4c0.6,0.1,1.2,0.2,1.7,0.3v2.8c0,1.2,0,2.2,0,3
	c0,0.8,0.1,1.5,0.1,2.1c0.1,0.6,0.2,1.1,0.3,1.6C161.9,110.1,161.2,110.3,160.4,110.5z"/>
<polygon class="st0" points="198.9,105.2 189.5,77.3 178.6,77.3 178.6,78.2 193.8,118 187.4,133.3 187.4,134.2 197.6,134.2 
	219.3,78.2 219.3,77.3 209,77.3 "/>
<path class="st0" d="M281.9,79.8c-1.7-1.3-3.6-2.2-5.8-2.7c-2.1-0.5-4.4-0.7-6.7-0.7c-2.4,0-4.9,0.3-7.4,0.9c-2.1,0.5-4,1.1-5.9,1.9
	c-1.4-0.9-3-1.6-4.7-1.9c-2.1-0.5-4.4-0.8-6.7-0.8c-2,0-4.1,0.2-6.3,0.5c-2.1,0.3-4.2,0.8-6.2,1.3c-2,0.5-3.7,1-5.2,1.7l-0.2,0.6
	c0.2,0.9,0.4,2.1,0.4,3.6c0.1,1.5,0.2,3,0.2,4.5c0,1.5,0.1,2.8,0.1,3.7v24.9h10.2V90.6c0-1.5-0.1-2.9-0.2-4c0-0.3-0.1-0.7-0.1-1
	c0.6-0.2,1.2-0.3,1.9-0.5c1.5-0.3,3-0.5,4.5-0.5c1.8,0,3.3,0.3,4.6,0.9c1.4,0.5,2.4,1.5,3.1,3c0.8,1.4,1.2,3.5,1.2,6.1v22.6h10.2
	v-23c0-3.4-0.5-6.2-1.4-8.4c0.9-0.3,1.8-0.5,2.7-0.7c1.3-0.3,2.5-0.4,3.7-0.4c1.9,0,3.6,0.3,5,0.9c1.4,0.5,2.5,1.5,3.1,3
	c0.7,1.4,1.1,3.5,1.1,6.1v22.6h10.2v-23c0-3.7-0.5-6.7-1.5-9C285,82.9,283.6,81.1,281.9,79.8z"/>
<path class="st0" d="M328.5,79.2c-2.8-1.9-6.4-2.8-10.8-2.8c-3.9,0-7.4,0.9-10.4,2.6c-2.9,1.7-5.2,4-6.8,7.2
	c-1.6,3.1-2.4,6.8-2.4,11c0,3.6,0.5,6.7,1.5,9.4c1.1,2.6,2.6,4.8,4.6,6.5c2,1.7,4.4,2.9,7.3,3.7c2.9,0.8,6.1,1.2,9.8,1.2
	c2.7,0,5-0.2,6.9-0.6c2-0.4,3.7-0.9,5-1.5v-8.3h-0.7c-1,0.6-2.4,1.1-4.2,1.5c-1.8,0.4-3.9,0.7-6.3,0.7c-2.7,0-5-0.4-7.1-1.1
	c-2-0.7-3.7-2-4.8-3.7c-0.8-1.3-1.4-2.9-1.6-4.8h27.4l0.1-2.4c0.2-4.2-0.3-7.9-1.5-11.1C333.3,83.5,331.3,81,328.5,79.2z M326,93.6
	h-17.5c0.2-1.8,0.5-3.4,1-4.6c0.8-1.8,1.9-3.1,3.3-3.8c1.4-0.8,3-1.2,4.8-1.2c2.8,0,4.9,0.8,6.3,2.3c1.4,1.6,2.1,3.8,2.1,6.8V93.6z"
	/>
<path class="st0" d="M377.5,79.9c-1.8-1.3-3.9-2.2-6.1-2.7c-2.2-0.5-4.6-0.8-7.1-0.8c-1.9,0-4,0.2-6.2,0.5c-2.1,0.3-4.2,0.8-6.3,1.3
	c-2,0.5-3.7,1-5.2,1.7l-0.2,0.6c0.2,0.9,0.4,2.1,0.4,3.6c0.1,1.5,0.2,3,0.2,4.5c0,1.5,0.1,2.8,0.1,3.7v24.9h10.2V90.6
	c0-1.5-0.1-2.9-0.2-4c0-0.3-0.1-0.7-0.1-1c0.6-0.2,1.2-0.3,1.9-0.5c1.5-0.3,3-0.5,4.5-0.5c2,0,3.7,0.3,5.2,0.9
	c1.5,0.5,2.6,1.5,3.4,3c0.8,1.4,1.2,3.5,1.2,6.1v22.6h10.2v-23c0-3.6-0.5-6.6-1.5-8.8C380.7,83,379.3,81.2,377.5,79.9z"/>
<path class="st0" d="M417.2,109.2c-0.9,0.2-1.8,0.3-2.7,0.3c-2.4,0-4.2-0.5-5.4-1.6c-1.2-1.1-1.8-2.9-1.8-5.3v-17h10.9v-8.2h-10.9
	V67h-10.2v10.3h-6.4v8.2h6.4v17.8c0,3.4,0.6,6.1,1.8,8.3c1.3,2.1,3.1,3.7,5.5,4.7c2.4,1,5.4,1.5,8.8,1.5c1.5,0,2.8-0.1,3.9-0.4
	c1.2-0.2,2.2-0.5,3.1-0.8v-8.2h-0.7C418.9,108.8,418.1,109,417.2,109.2z"/>
<path class="st0" d="M457.8,99.3c-1.1-1.6-2.6-2.8-4.5-3.7c-1.9-0.9-3.9-1.5-6.2-1.8l-3.4-0.6c-2.2-0.4-3.9-0.9-5-1.4
	c-1.1-0.5-1.7-1.4-1.7-2.7c0-1.7,0.8-2.8,2.3-3.4c1.6-0.7,3.7-1,6.4-1c1.8,0,3.6,0.1,5.3,0.4c1.7,0.3,3.5,0.8,5.3,1.5h0.6v-8.4
	c-1.6-0.5-3.3-0.9-5.1-1.1c-1.8-0.3-3.7-0.4-5.8-0.4c-4.5,0-8.1,0.6-10.9,1.8c-2.7,1.1-4.8,2.7-6.1,4.6c-1.3,1.9-1.9,4.1-1.9,6.5
	c0,3.3,1,5.8,3.1,7.5c2.1,1.7,5.1,2.8,9,3.5l3.4,0.6c2.3,0.4,4.1,0.9,5.2,1.4c1.1,0.5,1.7,1.5,1.7,2.9c0,1.1-0.3,1.9-0.9,2.6
	c-0.5,0.6-1.2,1.1-2.1,1.3c-0.8,0.2-1.7,0.4-2.7,0.5c-1,0-1.9,0.1-2.7,0.1c-2.4,0-4.8-0.3-7.2-0.8c-2.3-0.5-4.4-1.2-6.1-1.9h-0.6
	v8.6c1.9,0.6,3.9,1.1,6.3,1.5c2.3,0.4,4.7,0.6,7,0.6c6.3,0,11.1-1,14.2-3.1c3.2-2.1,4.8-5.3,4.8-9.6
	C459.5,102.7,458.9,100.8,457.8,99.3z"/>
<path class="st0" d="M131.9,29.7c0-5.5,1-10.3,3.1-14.3c2.1-4.1,5.3-7.3,9.4-9.5c4.2-2.2,9.3-3.4,15.4-3.4c2.5,0,4.7,0.2,6.7,0.6
	c2,0.4,3.7,0.9,5,1.5v9.2h-0.7c-1.3-0.7-2.8-1.3-4.6-1.7c-1.8-0.4-3.7-0.7-5.8-0.7c-3.9,0-7.2,0.7-9.8,2.1c-2.6,1.4-4.6,3.5-6,6.2
	c-1.4,2.7-2,6-2,9.9c0,3.9,0.7,7.2,2,9.9c1.4,2.7,3.4,4.7,6,6.1c2.6,1.4,5.9,2.1,9.8,2.1c2,0,4-0.2,5.8-0.6c1.8-0.4,3.3-1,4.6-1.8
	h0.7v9.2c-1.3,0.6-3,1.1-5,1.5c-1.9,0.4-4.2,0.6-6.7,0.6c-6.1,0-11.2-1.1-15.4-3.3c-4.1-2.2-7.3-5.3-9.4-9.4
	C132.9,40.1,131.9,35.3,131.9,29.7z"/>
<path class="st0" d="M215.8,49.7c-0.1-1.5-0.2-2.9-0.2-4.5c0-1.6,0-2.9,0-3.9v-9.2c0-3.5-0.5-6.4-1.5-8.6c-0.9-2.2-2.2-4-3.9-5.2
	c-1.7-1.2-3.7-2.1-6.1-2.6c-2.3-0.5-4.8-0.7-7.5-0.7c-2.2,0-4.4,0.2-6.6,0.5c-2.2,0.3-4.2,0.8-5.9,1.4v8.1h0.7
	c1.2-0.5,2.7-1,4.6-1.4c1.9-0.4,3.9-0.7,5.9-0.7c2.2,0,4.1,0.2,5.6,0.7c1.5,0.4,2.7,1.2,3.4,2.5c0.8,1.3,1.2,3.1,1.2,5.6v0.7
	c-0.7-0.2-1.4-0.3-2.2-0.4c-1.6-0.3-3.4-0.5-5.5-0.5c-3.4,0-6.4,0.5-9.1,1.4c-2.6,0.9-4.6,2.2-6.1,4.1c-1.4,1.9-2.1,4.2-2.1,7.1
	c0,4.5,1.5,7.7,4.6,9.7c3.1,2,7.7,3,13.8,3c1.8,0,3.7-0.1,5.7-0.4c2-0.2,3.9-0.6,5.8-1c2-0.5,3.8-1,5.4-1.7l0.2-0.6
	C216.1,52.3,215.9,51.2,215.8,49.7z M203.8,49.3c-1.6,0.3-3.2,0.4-4.9,0.4c-2.8,0-5-0.4-6.5-1.3s-2.3-2.3-2.3-4.3
	c0-2.1,0.8-3.6,2.3-4.5c1.6-0.9,3.9-1.3,7.1-1.3c1.4,0,2.9,0.1,4.4,0.4c0.6,0.1,1.2,0.2,1.7,0.3v2.8c0,1.2,0,2.2,0,3
	c0,0.8,0.1,1.5,0.1,2.1c0.1,0.6,0.2,1.1,0.3,1.6C205.4,48.9,204.6,49.1,203.8,49.3z"/>
<path class="st0" d="M226.2,45.9h0.6c1.8,0.7,3.8,1.4,6.1,1.9c2.4,0.5,4.8,0.8,7.2,0.8c0.8,0,1.7,0,2.7-0.1c1-0.1,1.9-0.3,2.7-0.5
	c0.9-0.2,1.6-0.7,2.1-1.3c0.6-0.6,0.9-1.5,0.9-2.6c0-1.4-0.6-2.3-1.7-2.9c-1.1-0.5-2.9-1-5.2-1.4l-3.4-0.6c-3.9-0.7-6.9-1.9-9-3.5
	c-2.1-1.7-3.1-4.2-3.1-7.5c0-2.4,0.6-4.6,1.9-6.5c1.3-1.9,3.3-3.5,6.1-4.6c2.8-1.2,6.4-1.8,10.9-1.8c2.1,0,4,0.1,5.8,0.4
	c1.8,0.2,3.5,0.6,5.1,1.1v8.4h-0.6c-1.9-0.7-3.6-1.2-5.3-1.5c-1.7-0.3-3.5-0.4-5.3-0.4c-2.7,0-4.9,0.3-6.4,1
	c-1.5,0.6-2.3,1.8-2.3,3.4c0,1.3,0.6,2.2,1.7,2.7c1.2,0.5,2.9,1,5,1.4l3.4,0.6c2.3,0.3,4.4,1,6.2,1.8c1.9,0.9,3.4,2.1,4.5,3.7
	c1.1,1.5,1.7,3.5,1.7,5.8c0,4.2-1.6,7.4-4.8,9.6c-3.1,2.1-7.8,3.1-14.2,3.1c-2.3,0-4.7-0.2-7-0.6c-2.3-0.4-4.4-0.9-6.3-1.5V45.9z"/>
<path class="st0" d="M303.5,24.6c-0.9-2.3-2.1-4.1-3.7-5.5c-1.5-1.4-3.3-2.4-5.4-3c-2-0.6-4.3-1-6.7-1c-2.3,0-4.4,0.2-6.2,0.7
	c-0.9,0.2-1.8,0.5-2.7,0.8V0.4h-10.7L267.9,1c0.2,0.9,0.4,2,0.4,3.5c0.1,1.5,0.2,3,0.2,4.5c0,1.5,0.1,2.8,0.1,3.7V56h10.2V24.6
	c0.1,0,0.1,0,0.1,0c1-0.2,2-0.5,3.1-0.7c1.1-0.2,2.2-0.3,3.2-0.3c1.9,0,3.5,0.3,4.8,0.9c1.4,0.5,2.5,1.5,3.3,3
	c0.8,1.4,1.2,3.4,1.2,6V56h10.2V33C304.8,29.6,304.4,26.8,303.5,24.6z"/>
<path class="st0" d="M336.1,0c-3.6,0-6.6,0.6-9.1,1.8c-2.5,1.2-4.4,3-5.8,5.4c-1.3,2.4-1.9,5.3-2,8.9H313v8.2h6.4V56h10.2V24.3h10.2
	v-8.2h-10.2c0.1-2.8,0.6-4.9,1.7-6.1c1.1-1.4,3-2,5.6-2c1.1,0,2,0.1,2.6,0.3c0.7,0.1,1.4,0.3,2,0.6h0.7V0.9
	c-0.7-0.3-1.6-0.5-2.6-0.7C338.5,0.1,337.4,0,336.1,0z"/>
<path class="st0" d="M363.5,15.5c-2,0-4.1,0.1-6.1,0.4c-2,0.2-3.9,0.5-5.8,0.9c-1.8,0.4-3.4,0.8-4.8,1.3l-0.2,0.6
	c0.2,0.9,0.4,2.1,0.4,3.6c0.1,1.5,0.2,3,0.2,4.5c0,1.5,0.1,2.8,0.1,3.7V56h10.2V29.4c0-2.1-0.1-3.7-0.4-5c0.6-0.1,1.1-0.2,1.8-0.3
	c1.5-0.2,3-0.4,4.6-0.4c0.9,0,1.8,0,2.7,0.1c0.9,0,1.8,0.2,2.5,0.4h0.7v-8.3c-1-0.1-2-0.2-3.1-0.3C365.3,15.5,364.4,15.5,363.5,15.5
	z"/>
<path class="st0" d="M405.9,17.9c-2.8-1.9-6.4-2.8-10.8-2.8c-3.9,0-7.4,0.9-10.4,2.6c-2.9,1.7-5.2,4-6.8,7.2
	c-1.6,3.1-2.4,6.8-2.4,11c0,3.6,0.5,6.7,1.5,9.4c1.1,2.6,2.6,4.8,4.6,6.5c2,1.7,4.4,2.9,7.3,3.7c2.9,0.8,6.1,1.2,9.8,1.2
	c2.7,0,5-0.2,6.9-0.6c2-0.4,3.7-0.9,5-1.5v-8.3H410c-1,0.6-2.4,1.1-4.2,1.5c-1.8,0.4-3.9,0.7-6.3,0.7c-2.7,0-5-0.4-7.1-1.1
	c-2-0.7-3.7-1.9-4.8-3.7c-0.8-1.3-1.4-2.9-1.6-4.8h27.4l0.1-2.4c0.2-4.2-0.3-7.9-1.5-11.1C410.7,22.2,408.7,19.7,405.9,17.9z
	 M403.4,32.3h-17.5c0.2-1.8,0.5-3.4,1-4.6c0.8-1.8,1.9-3.1,3.3-3.8c1.4-0.8,3-1.2,4.8-1.2c2.8,0,4.9,0.8,6.3,2.3
	c1.4,1.6,2.1,3.8,2.1,6.8V32.3z"/>
<path class="st0" d="M458.4,25.5c-1.2-3.3-3.2-5.8-6-7.6c-2.8-1.9-6.4-2.8-10.8-2.8c-3.9,0-7.4,0.9-10.4,2.6c-2.9,1.7-5.2,4-6.8,7.2
	c-1.6,3.1-2.4,6.8-2.4,11c0,3.6,0.5,6.7,1.5,9.4c1.1,2.6,2.6,4.8,4.6,6.5c2,1.7,4.4,2.9,7.3,3.7c2.9,0.8,6.1,1.2,9.8,1.2
	c2.7,0,5-0.2,6.9-0.6c2-0.4,3.7-0.9,5-1.5v-8.3h-0.7c-1,0.6-2.4,1.1-4.2,1.5c-1.8,0.4-3.9,0.7-6.3,0.7c-2.7,0-5-0.4-7.1-1.1
	c-2-0.7-3.7-1.9-4.8-3.7c-0.8-1.3-1.4-2.9-1.6-4.8h27.4l0.1-2.4C460.2,32.4,459.7,28.7,458.4,25.5z M450,32.3h-17.5
	c0.2-1.8,0.5-3.4,1-4.6c0.8-1.8,1.9-3.1,3.3-3.8c1.4-0.8,3-1.2,4.8-1.2c2.8,0,4.9,0.8,6.3,2.3c1.4,1.6,2.1,3.8,2.1,6.8V32.3z"/>
<path class="st1" d="M45,0.7c-10.6,0-19.2,8.6-19.2,19.2v71.2c10.6,0,19.2-8.6,19.2-19.2v-52h52c10.6,0,19.2-8.6,19.2-19.2H45z"/>
<path class="st2" d="M51.1,26.3v19.2h22.4c10.6,0,19.2-8.6,19.2-19.2l0,0H51.1z"/>
<path class="st3" d="M0,45.5c0-10.6,8.6-19.2,19.2-19.2l0,0v71.2c0,10.6-8.6,19.2-19.2,19.2l0,0V45.5z"/>
</svg>
