<svg width="16" height="16" viewBox="0 0 16 16" fill="none" xmlns="http://www.w3.org/2000/svg">
<path d="M10.9555 11.8C10.7925 11.6074 10.711 11.3888 10.711 11.144C10.711 10.8999 10.7925 10.6963 10.9555 10.5333L12.5999 8.88891H6.22214C5.97029 8.88891 5.75933 8.80357 5.58925 8.63291C5.41859 8.46283 5.33325 8.25187 5.33325 8.00002C5.33325 7.74816 5.41859 7.5369 5.58925 7.36624C5.75933 7.19616 5.97029 7.11113 6.22214 7.11113H12.5999L10.9555 5.46668C10.7777 5.2889 10.6888 5.07794 10.6888 4.83379C10.6888 4.58905 10.7777 4.37779 10.9555 4.20002C11.1184 4.02224 11.3223 3.93335 11.567 3.93335C11.8112 3.93335 12.0147 4.01483 12.1777 4.17779L15.3777 7.37779C15.4666 7.46668 15.5297 7.56298 15.567 7.66668C15.6038 7.77039 15.6221 7.8815 15.6221 8.00002C15.6221 8.11853 15.6038 8.22965 15.567 8.33335C15.5297 8.43705 15.4666 8.53335 15.3777 8.62224L12.1777 11.8222C11.9851 12.0148 11.7741 12.0999 11.5448 12.0773C11.3149 12.0554 11.1184 11.963 10.9555 11.8Z" fill="#E8460E"/>
<path d="M1.77778 16C1.28889 16 0.870222 15.8261 0.521778 15.4782C0.173926 15.1298 0 14.7111 0 14.2222V1.77778C0 1.28889 0.173926 0.870222 0.521778 0.521778C0.870222 0.173926 1.28889 0 1.77778 0H7.11111C7.36296 0 7.57422 0.085037 7.74489 0.255111C7.91496 0.425778 8 0.637037 8 0.888889C8 1.14074 7.91496 1.3517 7.74489 1.52178C7.57422 1.69244 7.36296 1.77778 7.11111 1.77778H1.77778V14.2222H7.11111C7.36296 14.2222 7.57422 14.3076 7.74489 14.4782C7.91496 14.6483 8 14.8593 8 15.1111C8 15.363 7.91496 15.5739 7.74489 15.744C7.57422 15.9147 7.36296 16 7.11111 16H1.77778Z" fill="#292D32"/>
</svg>
